# xmcd
#
# Track frame offsets: 
#        150
#        5422
#        19021
#        34191
#        47383
#        59459
#        68122
#        82127
#        88319
#        103015
#        116048
#        127210
#        128638
#        142194
#        156263
#        168891
#        179993
#        193378
#        207923
#        219155
#        231476
#        244035
#        255411
#        267522
#        279688
#        290664
#        301980
#        318483
#        330728
#        336395
#        349923
#
# Disc length: 4793 seconds
#
# Revision: 0
# Processed by: cddbd v1.5.2PL0 Copyright (c) Steve Scherf et al.
# Submitted via: ExactAudioCopyFreeDBPlugin 1.0
#
DISCID=f012b71f
DTITLE=Various Artist - Battleground Korea [CD3)
DYEAR=2018
DGENRE=Country
TTITLE0=Newsreel Announcer - A GI Writes To His Kids - A Posthumous Le
TTITLE0=tter
TTITLE1=Red Foley - Dear Little Girls
TTITLE2=Tex Ritter - Daddy's Last Letter
TTITLE3=Tiny Hill - Two Letters
TTITLE4=Jackie Doll and His Pickled Peppers - When They Drop The Atomic 
TTITLE4=Bomb
TTITLE5=Alan Jackson and President Truman - The Truman-MacArthur Dispute
TTITLE6=R.D. Henden and The Western Jamboree Cowboys - Oh! Mr. President
TTITLE7=General MacArthur - General Of The Army Douglas MacArthur's Re
TTITLE7=port To Congress
TTITLE8=Gene Autry - Old Soldiers Never Die
TTITLE9=Jimmie Short and The Silver Saddle Ranch Boys - (Old Generals Ne
TTITLE9=ver Die) They Just Fade Away
TTITLE10=Ray Snead - Fade Away Baby
TTITLE11=James E. Van Zandt - Rep. James E. Van Zandt Supports The Use
TTITLE11=Of The Atomic Bomb In Korea
TTITLE12='Skeets' McDonald - Please Daddy, Don't Go To War
TTITLE13=George Simerly and His Tennesseans - Why Does The Army Need My 
TTITLE13=Daddy
TTITLE14=Cecil Gant - God Bless My Daddy
TTITLE15=Oklahoma Sweethearts - Don't Steal Daddy's Medal
TTITLE16=Jimmie Heap and The Melody Masters - God Is On Our Side
TTITLE17=The Dixie Ramblers - I'll Be Glad When It's Over (Over There)
TTITLE18=Roscoe Hankins - I'm Prayin' For The Day (When Peace Will Com
TTITLE18=e)
TTITLE19=Edna McGriff - Heavenly Father
TTITLE20=Gene Autry - At Mail Call Today
TTITLE21=Jean Shepard and Ferlin Husky - A Dear John Letter
TTITLE22=Pete Lane and Bernice Stabile - John's Reply
TTITLE23=Jack Cardwell - Dear Joan
TTITLE24=Jean Shepard and Ferlin Husky - Forgive Me John
TTITLE25=Emitt Slay Trio - Male Call
TTITLE26=Hank Penny - A Letter From Home
TTITLE27=The Promenade Band - I Like Ike
TTITLE28=General Eisenhower - I Shall Go To Korea
TTITLE29=Little Maxie - Drive Soldier Drive
TTITLE30=Eddie Kirk - Five Star President
EXTD=
EXTT0=
EXTT1=
EXTT2=
EXTT3=
EXTT4=
EXTT5=
EXTT6=
EXTT7=
EXTT8=
EXTT9=
EXTT10=
EXTT11=
EXTT12=
EXTT13=
EXTT14=
EXTT15=
EXTT16=
EXTT17=
EXTT18=
EXTT19=
EXTT20=
EXTT21=
EXTT22=
EXTT23=
EXTT24=
EXTT25=
EXTT26=
EXTT27=
EXTT28=
EXTT29=
EXTT30=
PLAYORDER=
